<?xml version="1.0" encoding="utf-8"?>
<!-- Generator: Adobe Illustrator 16.0.0, SVG Export Plug-In . SVG Version: 6.00 Build 0)  -->
<!DOCTYPE svg PUBLIC "-//W3C//DTD SVG 1.1//EN" "http://www.w3.org/Graphics/SVG/1.1/DTD/svg11.dtd">
<svg version="1.1" id="Layer_1" xmlns="http://www.w3.org/2000/svg" xmlns:xlink="http://www.w3.org/1999/xlink" x="0px" y="0px"
	 width="156.662px" height="268.11px" viewBox="0 0 156.662 268.11" enable-background="new 0 0 156.662 268.11"
	 xml:space="preserve">
<symbol  id="devil" viewBox="-652.759 -1116.414 1305.518 2232.828">
	<path fill="#220E14" d="M45.62-545.423c8.256-19.334,25.621-80.99,95.961-136.196c42.203-33.124,98.817-82.496,199.234-109.495
		c175.915-47.298,235.489-5.999,266.455-68.771c23.638-47.917-8.467-116.678-87.963-142.719
		c-65.087-21.321-132.533-30.92-178.492-40.498c-103.542-21.579-165.33-25.308-165.33-25.308l55.306,49.69
		c0,0-71.463-25.228-128.493-45.802c-52.188-18.827-113.418-51.894-113.418-51.894s120.455,0.88,169.418,0.88
		s108.664-0.88,108.664-0.88l-68.915,33.004c0,0,126.791,3.524,222.272,22.885c81.65,16.555,127.188,32.672,152.985,47.423
		c76.071,43.497,99.995,150.06,50.681,198.062s-134.453,29.608-243.418,56.926s-218.517,60.619-282.566,227.53
		C80.547-485.101,32.41-514.488,45.62-545.423z"/>
	<path fill="#220E14" d="M48.62-545.423c8.256-19.334,25.621-80.99,95.961-136.196c42.203-33.124,98.817-82.496,199.234-109.495
		c175.915-47.298,235.489-5.999,266.455-68.771c23.638-47.917-8.467-116.678-87.963-142.719
		c-65.087-21.321-132.533-30.92-178.492-40.498c-103.542-21.579-165.33-25.308-165.33-25.308l55.306,49.69
		c0,0-71.463-25.228-128.493-45.802c-52.188-18.827-113.418-51.894-113.418-51.894s120.455,0.88,169.418,0.88
		s108.664-0.88,108.664-0.88l-68.915,33.004c0,0,126.791,3.524,222.272,22.885c81.65,16.555,127.188,32.672,152.985,47.423
		c76.071,43.497,99.995,150.06,50.681,198.062s-134.453,29.608-243.418,56.926s-218.517,60.619-282.566,227.53
		C83.547-485.101,35.41-514.488,48.62-545.423z"/>
	<g>
		<path fill="#4E3033" d="M344.284-1058.102c45.959,9.578,113.405,19.177,178.492,40.498
			c73.778,24.168,106.728,85.129,92.191,132.077c4.264-44.194-29.063-95.415-95.191-117.077
			c-65.087-21.321-132.533-30.92-178.492-40.498c-67.266-14.019-116.9-20.502-143.43-23.326l-18.9-16.981
			C178.954-1083.409,240.742-1079.681,344.284-1058.102z"/>
		<path fill="#4E3033" d="M238.346-1116.049c17.339-0.192,29.085-0.365,29.085-0.365l-39.858,19.089
			c-16.229-0.812-26.057-1.085-26.057-1.085L238.346-1116.049z"/>
		<path fill="#4E3033" d="M46.923-547.438c2.125,24.833,39.594,40.821,54.547,1.854c64.05-166.911,173.602-200.213,282.566-227.53
			s194.104-8.924,243.418-56.926c10.59-10.308,17.792-23.32,21.836-37.823c-2.601,20.507-10.707,39.07-24.836,52.823
			c-49.314,48.002-134.453,29.608-243.418,56.926S162.52-697.496,98.47-530.585c-17.454,45.484-65.591,16.097-52.381-14.838
			C46.356-546.05,46.635-546.724,46.923-547.438z"/>
		<path fill="#4E3033" d="M105.767-1079.521c32.638,11.774,69.996,25.07,95.988,34.292l29.505,26.51
			c0,0-71.463-25.228-128.493-45.802c-52.188-18.827-113.418-51.894-113.418-51.894s13.223,0.097,32.679,0.226
			C44.578-1105.027,76.584-1090.049,105.767-1079.521z"/>
	</g>
	<path fill="#220E14" d="M168.241,701.438c-36.758,3.951,25.8,73.265,37.89,81.95c18.656,13.402,32.674,16.858,45.665,37.604
		c4.713,7.526,7.75,16.287,12.296,23.677c6.363,10.344,18.875,20.568,23.647,31.31c6.474,14.569-1.589,23.633-1.498,41.562
		c0.082,16.33,12.785,38.682,7.651,54.438c-3.233,9.924-13.304,14.658-20.257,21.523c-11.223,11.079-19.287,24.304-28.465,37.06
		c-15.71,21.835-33.531,41.47-46.461,65.304c25.451-10.101,49.774-32.169,73.524-46.428c24.986-15.001,55.142-38.706,66.491-66.549
		c9.628-23.619,6.445-68.556,7.619-96.711c1.631-39.117-13.453-58.076-29.666-93.231c-16.815-36.464-33.075-71.961-38.438-109.452
		c-5.787-40.457,8.329-74.146-29.548-101.996c-12.727,60.556-31.274,92.449-86.452,117.939L168.241,701.438z"/>
	<path fill="#220E14" d="M-27.775,721.014c36.758,3.951-25.8,73.264-37.89,81.949c-18.656,13.402-32.674,16.858-45.665,37.605
		c-4.713,7.525-7.75,16.287-12.296,23.676c-6.363,10.344-18.875,20.569-23.647,31.311c-6.474,14.569,1.589,23.633,1.498,41.562
		c-0.082,16.329-12.785,38.681-7.651,54.438c3.233,9.924,13.304,14.658,20.257,21.522c11.223,11.079,19.287,24.304,28.465,37.06
		c15.71,21.835,33.531,41.47,46.461,65.305c-25.451-10.102-49.774-32.169-73.524-46.428c-24.986-15.002-55.142-38.707-66.491-66.549
		c-9.628-23.62-6.445-68.557-7.619-96.712c-1.631-39.117,13.453-58.075,29.666-93.23c16.815-36.464,33.075-71.962,38.438-109.452
		c5.787-40.457-8.329-74.147,29.548-101.997c12.727,60.556,31.274,92.449,86.452,117.94L-27.775,721.014z"/>
	<path fill="#220E14" d="M-124.223,483.145c-9.334,48.86-59.667,64.97-72.846,112.734c-46.24-1.955-28.287-84.355-19.744-109.284
		c6.749-19.692,19.74-37.831,26.445-57.961c6.507-19.536-0.982-42.498-1.947-65.381c-0.718-17.041-3.435-16.539-10.445-31.11
		c-4.96-10.311-9.133-19.254-5.602-32.046c8.813-31.922,25.5-11.274,33.157,8.093c16.163,40.882,39.128,75.315,45.426,118.503
		C-127.078,445.204-124.223,463.201-124.223,483.145"/>
	<path fill="#4E3033" d="M420.319-939.296c0-10.835-8.783-19.619-19.618-19.619h-40.267c-10.836,0-19.619,8.784-19.619,19.619l0,0
		c0,10.835,8.783,19.619,19.619,19.619h40.267C411.536-919.677,420.319-928.461,420.319-939.296L420.319-939.296z"/>
	<path fill="#4E3033" d="M-209.681-939.296c0-10.835-8.783-19.619-19.618-19.619h-40.267c-10.836,0-19.619,8.784-19.619,19.619l0,0
		c0,10.835,8.783,19.619,19.619,19.619h40.267C-218.464-919.677-209.681-928.461-209.681-939.296L-209.681-939.296z"/>
	<path fill="#220E14" d="M-105.759-162.445c-19.388-21.068-34.225-51.153-37.889-59.699c-14.594-34.033-75.156-33.841-97.853-85.36
		c-27.945-13.014-30.016,10.188-68.614,28.019c-24.396,11.271-42.938,15.522-65.121,20.51c-0.389,2.804,8.142,37.053,8.241,40.526
		c-14.186-0.838-32.299-25.031-46.529-25.538c-9.111-17.929-100.092-29.629-79.368-45.787c7.966-6.211,48.175-14.645,64.189-15.137
		c19.172-0.589,40.296,15.49,48.943,7.815c29.315-26.016,64.009-50.905,83.522-57.798c30.314-10.709,36.896-25.43,69.205-20.428
		c17.732,2.745,60.07,15.138,95.272,49.077c27.341,26.36,46.569,73.137,71,91c15.692,11.474,66.169,66.219,76,85.8
		C24.462-131.078-45.759-97.245-105.759-162.445z"/>
	<path fill="#220E14" d="M50.241,716.438c110.163-16.24,135,17,193-29c86.49-68.596,7.959-172.032,3-226
		c2.196,9.111,15.75,51.692,29,65c3.472,3.486,51.307,48.088,53.773,49c22.125,8.184-3.391-47.059,3.227-98
		c3.313-25.508-23.303-97.744-35-109c-0.481-24.816,5.463-84.916-17-84.916c-17,0-28.605,21.916-40,35.916
		c-1.097-17.701-12.525-71.542-18-88.342c-6.52-20.006-6.766-38.873-10.491-59.167c-3.989-21.729-13.983-75.797-30.509-91.491
		c-75.914-72.094-37-115.667-91.889-129.719c-8.724-2.233-51.111-18.281-40.111,23.719c2.904,11.09,4.57-15.614-11.909-21.646
		c-5.789-2.119-55.475-6.928-65.091-0.688c-8.417,5.464-11.396,16.518-13.459,26.098c-2.391,11.098,13.459,24.569-2.096,55.18
		c-31.54,62.064-54.698,123.598-63.896,190.096c-4.567,33.017-21.456,60.022-34.104,90.085
		c-14.675,34.884-11.431,58.027-4.947,94.195c5.186,28.928,19.947,55.007,22.502,84.125c2.535,28.887-9.028,56.034-13.555,83.508
		c-5.383,32.67-4.448,61.261,10.555,93.047C-104.477,715.645-21.759,748.438,50.241,716.438z"/>
	<path fill="#220E14" d="M208.377-519.131c-28.901,16.239-86.967,16.611-95.7-12.849c-7.521-25.371,15.974-98.439,17.177-123.914
		c2.494-52.88-50.303-60.117-25.149-155.735c2.397-9.111,7.85-18.73,8.1-28.296c0.545-20.828-9.193-20.058-17.391-37.938
		c-8.936-19.488,0.352-39.589,20.04-45.617c36.104-11.052,68.559,20.069,100.826-4.653c18.731-14.35,26.706-30.277,51.04-36.378
		c16.35-4.099,21.957,1.728,38.59,1.898c28.452-18.615,20.857-22.697,50.916-30.058c23.812-5.832,82.906-2.94,57.781,52.072
		c-20.347-0.141-50.125-14.326-66.008,4.488c24.102,1.684,65.268,11.534,70.98-16.631c1.876-9.248-2.344-25.305,39.621-24.594
		c23.485,0.397,38.505,18.402,25.774,29.58c-13.896,12.198-40.324,11.605-58.829,18.756
		c-45.307,17.508-94.224,22.317-138.756,39.326c-18.774,7.171-34.888,20.686-52.58,29.506
		c-18.123,9.035-48.189,11.409-60.964,28.092c-11.396,14.882-9.668,89.993-4.324,107.066c-0.803-3.128-2.969-1.183-13.601,7.813
		c10.632-8.996,26.279-5.36,34.867,10.998c6.819,12.991-0.633,38.815-3.954,60.75c-3.963,26.188,2.021,38.941,9.271,63.292
		C200.977-565.79,208.377-519.131,208.377-519.131z"/>
	<path fill="#220E14" d="M-76.756-519.131c28.901,16.239,86.967,16.611,95.7-12.849c7.521-25.371-15.974-98.439-17.177-123.914
		c-2.494-52.88,50.303-60.117,25.149-155.735c-2.397-9.111-7.85-18.73-8.1-28.296c-0.545-20.828,9.193-20.058,17.391-37.938
		c8.936-19.488-0.352-39.589-20.04-45.617c-36.104-11.052-68.559,20.069-100.826-4.653c-18.731-14.35-26.706-30.277-51.04-36.378
		c-16.35-4.099-21.957,1.728-38.59,1.898c-28.452-18.615-20.857-22.697-50.916-30.058c-23.812-5.832-82.906-2.94-57.781,52.072
		c20.347-0.141,50.125-14.326,66.008,4.488c-24.102,1.684-65.268,11.534-70.98-16.631c-1.876-9.248,2.344-25.305-39.621-24.594
		c-23.485,0.397-38.505,18.402-25.774,29.58c13.896,12.198,40.324,11.605,58.829,18.756c45.307,17.508,94.224,22.317,138.756,39.326
		c18.774,7.171,34.888,20.686,52.58,29.506c18.123,9.035,48.189,11.409,60.964,28.092c11.396,14.882,9.668,89.993,4.324,107.066
		c0.803-3.128,2.969-1.183,13.601,7.813c-10.632-8.996-26.279-5.36-34.867,10.998c-6.819,12.991,0.633,38.815,3.954,60.75
		c3.963,26.188-2.021,38.941-9.271,63.292C-69.355-565.79-76.756-519.131-76.756-519.131z"/>
	<path fill="#220E14" d="M49.192-34.562c-22.229,0.06-36.201,12.5-33.951-12.516c1.732-19.261-1.236-57.977-1-77.396
		c0.289-23.821-2.324-23.234-22.669-35.26c-19.156-11.323-25.86-20.347-33.381-40.933c-6.944-19.005-11.108-39.82-14.395-59.793
		c-3.504-21.293,2.576-49.44-4-69.658c-6.409-19.705-33.614-31.819-44.043-52.459c-18.643-36.895-14.554-84.994,2.089-121.684
		c6.693-14.756,14.226-29.94,22.843-43.791c14.874-23.904,36.64-22.734,65.541-24.551c31.436-1.976,62.646,2.08,93.993,2.039
		c24.586-0.032,67.555-9.936,90.815-2.136c45.39,15.22,56.623,123.094,42.284,180.136c-5.271,20.97-27.478,35.879-32.729,56.067
		c-7.76,29.828-2.349,67.44-2.349,98.666c0,49.703-16.06,73.625-61.428,97.355c2.771,0.296-15.319,7.295-12.696,7.911
		c-7.812,17.374-10.867,60.75-9.376,92.5C95.258-29.056,69.083-31.885,49.192-34.562z"/>
	<path fill="#220E14" d="M-513.018-179.617c0,0-13.423-7.229-14.246-19.945c-0.205-3.179-2.912-25.945-1.615-29.684
		c3.891-11.213,15.861-17.279,15.861-17.279s-22.663-3.374-16.212-24.037c3.507-11.237,57.603-30.651,68.204-32.992
		c10.6-2.341,20.183,10.284,25.108,18.024c4.925,7.738-12.198,8.887-12.198,8.887s10.008-3.26,17.436,6.591
		c7.427,9.851-7.938,14.684-7.938,14.684s21.342-10.648,28.192,0.517c2.554,4.161,8.443,10.35,12.289,17.634
		c4.686,8.875,7.512,38.028,6.167,42.557C-398.121-173.931-513.018-179.617-513.018-179.617z"/>
	<path fill="#220E14" d="M-489.19-124.562c0,0,11.395-9.642,6.332-26.292c-5.063-16.651-15.529-17.07-15.529-17.07
		s6.322,5.504,15.529,0.623s17.94-12.136,21.168-19.656c3.226-7.521-6.332-23.922-6.332-23.922s-11.67-4.652-18.293-2.109
		c-6.624,2.541-23.923,11.96-23.923,11.96s-24.387,2.377-28.023,9.982s0,19.944,0,19.944s7.182,23.692,14.246,27.545
		S-489.19-124.562-489.19-124.562z"/>
	<path fill="#4E3033" d="M-518.746-257.205c-1.666,0.109-3.072-1.849-2.943-4.999c0.346-8.448,7.167-12.341,10.504-14.511
		c3.977-2.587,30.446-17.281,31.787-10.127c3.234,17.257-35.318,31.879-39.959,29.457"/>
	<path fill="#4E3033" d="M-517.479-219.344c0.04-25.571,6.59-35.502,17.555-42.084c4.955-2.976,20.283-17.885,23.505-1.766
		c7.037,35.193-31.008,45.183-41.379,45.183L-517.479-219.344z"/>
	<path fill="#4E3033" d="M-520.234-190.607c-1.736-4.554-1.266-17.994,0.87-22.85c1.593-3.622,5.765-2.795,7.794-3.131
		c4.68-0.777,9.339-1.307,14.004-2.054c4.452-0.713,9.216-2.447,13.683-1.966c3.753,0.405,4.364,4.032,5.515,11.37
		c3.281,20.92-4.963,28.162-13.791,26.662C-501.318-184.131-511.527-185.423-520.234-190.607z"/>
	<path fill="#220E14" d="M370.958-584.149c0,0-7.145,40.396-17,50.017c-2.271,2.216-4.441,4.336-6.451,6.297
		c-7.271,4.903-19.001,12.449-20.059,22.221c-1.47,13.575,11.754,113.041,2.724,143.939c-5.894,20.167-24.769,82.434-51.733,135.727
		c-16.224,32.062-36.438,58.247-46.401,70.724c-36.12,45.227-76.493,2.467-98.648,10.089c-18.459,6.351,31.217-86.484,42.89-81.087
		c34.373,15.891,54.936-83.634,94.416-142.854c-0.957-32.987-5.758-79.129,3.291-112.684c3.74-13.87,7.86-16.282,7.939-30.207
		c-1.896-1.151-3.817-2.329-5.954-2.682l16.039-1.234c-8.278-0.023-17.893-6.636-23.425-10.128c0,0,0,0,0.001,0
		c-2.994-1.742-6.565-4.56-10.628-9.081c-13-14.469-3-40.469-3-40.469l-1-22l-12-54c0,0-6-2,7-8s13.836-3.144,25,3
		c6.487,3.57,8.474,20.888,9,34.771l5,24.229c0,0-1.621-8.223-2-18.229v-22.771c0,0,9-19,2-19s-31-8-35-27s3-24.769,3-24.769
		l28,7.769l16,9l9-5l27,17.984c0,0,7.4-10.088,17-5.984c14,5.984,13,15,13,15s16.736,0,22.736,15S370.958-584.149,370.958-584.149z"
		/>
	<path fill="#4E3033" d="M-29.731-30.028c-0.016-0.464-0.027-0.928-0.027-1.389C-29.746-30.98-29.737-30.512-29.731-30.028z"/>
	<path fill="#4E3033" d="M16.062-151.083c-40.021-19.758-50.467-79.523-51.821-109.479c-2.454-54.261-21.916-66.098-47.224-107.886
		c-28.73-47.438-28.183-103.58,11.638-144.307c29.646-30.32,93.823-64.903,135.459-48.79
		c-50.448,5.916-106.396,71.502-83.254,124.996c6.679,15.44,40.611,39.302,55.695,44.271c24.908,8.208,103.863-24.587,116.861-8.57
		c27.733,34.172-55.441,43.693-68.869,47.268c-36.177,9.627-83.701-13.157-100.306,21.44c-19.18,39.962,14.59,157.98,62.106,172.491
		c6.728,88.709,13.709,109.667-1.608,106.977c-5.129-0.9-12.678,7.571-16.757-1.469C15.746-81.259,16.451-146.299,16.062-151.083z"
		/>
	<path fill="#4E3033" d="M16.241,373.438c-1.104-3.796-0.05-9.769,0.31-13.651c19.495-5.736,59.271-15.001,69.484,9.299
		c-26.779-5.483-41.11-7.126-63.844,10.599c-3.65-2.312-5.173-5.803-5.95-10.246"/>
	<path fill="#4E3033" d="M141.159,402.152c45.183,14.002,76.36-14.303,75.872-49.776c-19.252,1.159-18.402,18.163-37.078,21.195
		c-33.996,5.52-40.324-23.938-51.64-20.399C105.202,360.399,126.899,396.954,141.159,402.152z"/>
	<path fill="#4E3033" d="M-15.759-126.562c-32.667,12.667-81.854-27.729-94.502-45.395c-19.65-27.445-13.525-62.591-45.498-76.16
		c-17.06-7.241-29.42-13.876-44.456-26.349c-12.634-10.48-24.923-32.169-39.1-38.645c-16.163-7.384-25.701,12.098-41,22
		c-19.34,12.517-46.313,22.912-69.47,26.096c-7.718,1.062-22.117-3.793-29.975-3.548c34.645-8.064,50.145-10.595,80-27.174
		c22.288-12.377,46.774-32.851,62.398-54.556c15.602,25.062,31.143,53.551,60.269,67.062c13.67,6.342,35.333,10,48.888,7.215
		c16.421-3.374,12.338,10.225,14.445,27.943C-109.766-214.485-78.425-134.134-15.759-126.562z"/>
	<path fill="#4E3033" d="M-55.759-564.562c13.015-35.124,15.204-60.355,9.896-96c-3.598-24.166-7.859-50.315,21.904-53.744
		c-10.747,24.03-3.432,61.686-1.904,87.647c1.027,17.443,5.514,29.009-6.445,43.698c-6.614,8.124-16.836,10.571-21.452,20.398"/>
	<path fill="#4E3033" d="M-27.759-740.562c0-25.906,0.285-53.215-2.104-77.896c-1.276-13.197-5.479-24.82-6.031-37.809
		c-68.737-2.095-123.157-61.73-189.261-60.295c31.771,1.188,60.237-9.153,91.385,2.445c28.959,10.783,53.707,28.758,83.63,37.555
		c20.9,6.145,27.527,3.618,34.374,24.502c4.329,13.202,5.549,29.408,4.007,43.498c-2.312,21.122-18.466,38.413-18,60"/>
	<path fill="#4E3033" d="M126.241-570.562c0.733-0.404,1.473-0.705,2.213-0.958c-0.07,0.319-0.143,0.641-0.213,0.958H126.241z"/>
	<path fill="#4E3033" d="M55.83,701.31c-20.437,2.682-36.634,14.62-58.311,16.237c-18.94,1.413-45.887,2.436-63.168-6.08
		c-21.278-10.485-42.539-39.1-52.633-60.031c-24.35-50.492,10.247-103.624,7.393-155.389c-10.006,1.449-24.418-49.391-27.943-59.788
		c-13.56-39.995-5.091-75.812,7.131-114.473c10.58-33.465,73.455-230.259,87.019-263.128c-0.465,32.577-59.827,235.19-58.393,267.67
		c0.904,20.48,8.536,27.561,28.411,40.1c19.135,12.072,64.439-10.385,69.718,12.369c8.13,35.044-79.991,16.398-98.128,27.01
		c-16.938,9.909,5.752,60.139,10.785,76.514c7.647,24.88,15.874,39.758,9.792,67.54c-14.626,66.819,15.891,123.021,73.763,154.749
		c19.682,10.79,41.955,13.604,57.064-4.799"/>
	<path fill="#4E3033" d="M163.741,271.256c-7.665-10.945-13.238-25.201-19.274-37.251c-7.384-14.741-17.509-28.664-20.972-44.922
		c-8.293-38.936-8.973-74.348-15.92-112.98c-1.764-9.809-10.194-34.201-20.698-38.899c-8.275-3.701-27.548,1.544-37.233,2.052
		c-6.157,0.322-12.091,1.314-18.344,1c-8.585-0.432-21.32-1.85-28.359-7.507C-4.645,26.652-17.293,7.726-22.425-0.563
		c5.859,14.386,54.766,18.608,67.714,17.864c12.073-0.695,22.077-4.645,30.256-13.268c9.013-9.502,12.08-15.787,22.493-1.771
		c9.356,12.595,16.686,29.485,20.502,44.548c4.19,16.536,4.606,33.708,6.229,50.545c1.881,19.515,6.312,38.542,8.746,58.004
		c3.03,24.241,5.393,48.586,11.396,72.365c3.664,14.513,10.589,28.179,13.829,42.532"/>
	<path fill="#4E3033" d="M296.241,953.438c-1.764-14.71-5.905-28.185-3.048-42.926c2.844-14.672,12.457-30.457,7.115-45.8
		c-5.036-14.468-22.518-23.736-30.071-37.506c-10.279-18.739,0.068-29.108-19.855-38.601
		c-25.579-12.188-50.834-50.168-53.373-109.66c-5.194,13.278-40.252,26.845-35.319,42.77c4.215,13.606,17.456,25.93,27.552,35.448
		c20.021,18.879,43.663,34.68,61.251,56.47c16.335,20.238,37.78,47.268,37.749,73.859c-0.012,10.459-0.488,20.758-1,30.997
		c-0.267,5.342-0.826,11.689-0.052,16.918c1.766,11.919,10.388,21.546,14.705,32.826c-4.792-8.026-3.656-17.599-3.653-26.796"/>
	<path fill="#4E3033" d="M309.241,550.438c-4.688-7.085-17.51-13.645-23.996-20.025c-10.433-10.261-17.532-20.539-23.004-34.057
		c-10.555-26.075-14.504-49.423-15.921-77.033c-1.242-24.167-7.486-51.497,0.043-75.031c3.805-11.894,30.125-59.568,43.49-32.999
		c6.879,13.677-8.083,53.459-13.166,66.066c-8.346,20.7-14.849,39.616-8.759,61.878c5.656,20.681,15.257,39.024,18.094,60.7
		c1.8,13.75,2.276,22.53,12.567,32.623c6.162,6.043,12.36,10.526,16.575,17.801c-1.664-1.969-3.824-2.618-5.924-3.924"/>
	<path fill="#4E3033" d="M8.858,562.77c0,0,15.03-11.287,22.93-50.451c8.169-40.498,1.265-83.07-2.213-116.216
		c38.723,5.19,29.585,95.666,21.317,125.215C33.278,584.274,8.858,562.77,8.858,562.77z"/>
	<path fill="#4E3033" d="M-127.161,1067.291c-28.132-19.109-61.85-33.102-69.365-69.413c-7.587-36.659-12.885-90.891,2.167-126.287
		c15.803-37.161,37.727-66.859,50.322-105.485c9.262-28.403,13.646-57.176,15.042-86.961c0.395-8.42-0.733-17.398,2.167-25.344
		c20.747,24.358,3.446,54.725,2.605,84.637c-1.504,53.487-48.432,99.888-58.471,153.402
		c-8.584,45.759-13.915,102.288,18.122,139.576c17.967,20.911,43.131,30.771,61.78,50.504c3.006,3.18,5.802,6.957,8.396,10.31
		c-6.759-6.183-12.215-14.947-19.262-20.474c-7.545-5.916-13.757-5.848-22.504-8.965"/>
	<path fill="#4E3033" d="M85.696,609.69c15.545-2.591,37.781,23.313,87.337-22.429c21.398-19.751,18.343-46.784,30.741-70.692
		c-0.838,32.115,4.981,76.56-21.994,97.286C133.078,651.275,95.749,622.879,85.696,609.69z"/>
	<path fill="#4E3033" d="M128.908-579.23c0.389-22.671,6.794-44.411,7.998-66.837c0.759-14.143-0.381-27.432-6.502-40.377
		c-4.916-10.396-11.558-19.762-16.313-30.295c-9.014-19.963-13.245-36.702-11.347-58.824c1.854-21.589,9.731-43.946,21.395-62.278
		c0.361,10.678-1.319,22.132-1.23,33.082c0.126,15.559-7.404,38.036-4.588,53.317c4.83,26.216,13.362,46.123,18.402,72.047
		c4.396,22.605,6.475,45.445,7.553,68.687c0.407,8.776-1.562,18.504,2.601,26.611c6.567,12.792,24.26,17.248,33.988,26.948
		c-9.538-9.201-26.094-8.785-38.109-10.742c-3.559-0.58-10.929-1.735-13.192-4.574c-5.066-6.353-1.081-23.403,1.346-30.098"/>
	<path fill="#4E3033" d="M-491.759-131.229c13.312-14.835,8.222-33.12-6.451-43.984c-6.96-5.152-29.901-19.757-33.564-6
		c-2.386,8.959,6.989,24.801,12.519,31.354c6.276,7.439,17.916,14.893,26.164,20.028c0.621-0.475,1.387-0.934,2-1.398"/>
	<path fill="#4E3033" d="M-208.691,471.739c12.331-22.229,31.496-39.25,29.223-65.52c-1.069-12.35,0.977-30.766-2.977-41.945
		c-1.154-3.263-8.391-18.805-10.468-23.559c-4.022-9.205-8.66-12.277-7.551-23.997c0.571-6.032,3.269-16.308,6.774-20.1
		c4.87,7.082,4.39,16.726,7.223,24.92c3.591,10.388,8.119,15.785,14.826,23.778c6.091,7.259,4.971,13.046,4.952,22.957
		c-0.033,16.985,7.484,33.262,7.016,49.707c-0.574,20.148-29.557,33.34-41.542,48.293c-8.343,10.409-16.894,21.441-18.474,34.322
		c-2.258,18.41-2.858,45.387,12.77,57.908c8.137-5.96,18.885-10.192,25.059-17.702c0.81,13.864-0.641,32.637-15.829,38.766
		c-8.598,3.469-23,8.863-28-13.197C-230.691,544.311-225.339,501.752-208.691,471.739z"/>
	<path fill="#220E14" d="M-343.36-960.295L-471.192,352.463c48.554,5.63,84.735,16.251,106.392,50.179
		c38.42,60.187-49.761,452.28-62.237,451.188l-22.207,28.933l44.026-418.938c1.092-12.477,8.281-57.36-29.972-60.707
		c-37.457-3.277-40.658,41.956-41.75,54.432l-49.445,565.178l-30.637,93.687l-11.07-97.336l49.446-565.177
		c1.092-12.477,8.956-53.006-32.279-58.87c-37.28-5.301-38.352,40.118-39.442,52.595l-34.027,428.938l-17.654-41.545
		c-11.766-25.811-21.07-422.147,13.071-455.49c30.151-29.445,66.242-33.792,115.431-30.804L-385.719-964
		c0.145-1.65,1.96-12.646,23.293-12.562C-347.624-976.505-343.216-961.943-343.36-960.295z"/>
	<path fill="#4E3033" d="M-427.56,403.597c3.869-1.11,8.271-1.55,13.296-1.11c38.254,3.347,31.064,48.23,29.973,60.707
		l-40.939,389.552c-0.324,0.312-0.62,0.477-0.88,0.453l-22.208,28.933l44.027-418.938
		C-403.269,451.504-396.894,411.364-427.56,403.597z"/>
	<path fill="#4E3033" d="M-545.022,395.333c4.208-1.345,9.169-1.765,15.023-0.933c41.235,5.864,33.371,46.393,32.28,58.87
		l-49.446,565.178l5.909,51.956l-14.84,45.379l-11.069-97.335l49.446-565.178C-516.674,441.322-509.426,403.654-545.022,395.333z"/>
	<path fill="#4E3033" d="M-364.791-964.631L-492.62,348.095c-6.897-0.419-13.528-0.687-19.931-0.768l127.76-1311.958
		c0.144-1.65,1.96-12.646,23.293-12.562c2.987,0.012,5.546,0.621,7.733,1.589C-363.601-972.515-364.682-965.884-364.791-964.631z"/>
	<path fill="#220E14" d="M-425.48-258.838c1.667,0.109,6.852-10.966,6.722-14.116c-0.345-8.448-27.663-26.438-31-28.608
		c-3.977-2.587-13.727,5.934-15.068,13.088c-3.234,17.257,35.317,31.879,39.959,29.457"/>
	<path fill="#220E14" d="M-426.746-220.977c-0.041-25.571-6.592-35.502-17.556-42.084c-4.955-2.976-20.283-17.885-23.505-1.766
		c-7.037,35.193,31.009,45.183,41.379,45.183L-426.746-220.977z"/>
	<path fill="#220E14" d="M-426.777-199.74c1.735-4.554,1.266-17.994-0.87-22.85c-1.593-3.622-5.765-2.795-7.794-3.131
		c-4.68-0.777-9.339-1.307-14.004-2.054c-4.453-0.713-9.216-2.447-13.683-1.966c-3.754,0.405-4.364,4.032-5.516,11.37
		c-3.281,20.92,4.964,28.162,13.791,26.662C-445.693-193.264-435.484-194.556-426.777-199.74z"/>
	<path fill="#4E3033" d="M-608.051,378.899c-34.143,33.343-24.838,429.678-13.072,455.49l0.801,1.884l-3.146,39.661l-17.654-41.545
		c-11.766-25.812-21.07-422.147,13.072-455.49c27.354-26.713,59.599-32.769,102.076-31.431
		C-558.842,348.664-585.162,356.546-608.051,378.899z"/>
	<path fill="#220E14" d="M-384.186-249.937c0,0,16.627,22.674,22.627,42.501c6.001,19.827,22.669,32.665,20.729,44.988
		c-1.939,12.322-26.678,19.895-26.678,19.895s-28.133,3.645-42.027,10.153c-19.804,9.274-31.765,9.974-31.765,9.974l-34.751-21.93
		l-25.838-16.081l-2.493-12.406c0,0,12.587-16.504,22.435-16.907c9.849-0.404,19.468,8.483,19.468,8.483l25.772,7.729
		c0,0,15.268-7.616,28.518-5.733c18.619,2.646,14.937-3.002,14.937-3.002s-37.661-3.095-28.364-24.888
		c15.031-35.242-2.114,7.881,8.15-22.897c0,0,6.242-2.641,18.762-7.628S-384.186-249.937-384.186-249.937z"/>
	<path fill="#4E3033" d="M-429.759-127.562c-12.86-8.433-41.951-12.378-45.892-30.826c12.961-0.664,26.07,2.203,38.885,0.822
		c10.407-1.121,18.855-3.994,29.801-3.996c8.104-0.001,16.793,1.808,21.451-5.683c2.234-3.592,2.925-12.384,1.028-16.317
		c-4.385-9.1-30.092-0.917-38.043-5.5c-10.906-6.287,0.282-35.005,10.917-44.445c12.128-10.764,27.458-4.259,31.853,5.445
		c6.87,15.169,6.22,33.959,15.82,47.52c7.364,10.402,13.179,19.744-0.755,25.762c-16.146,6.974-33.283,11.37-49.062,19.47
		c-7.368,3.783-13.347,9.99-22.003,6.749"/>
	<path fill="#4E3033" d="M264.241-570.562v-18.229C264.62-578.785,264.241-570.562,264.241-570.562z"/>
	<path fill="#4E3033" d="M193.354-182.903c-1.156-32.521,17.127-62.83,37.592-92.469c10.931-15.83,20.361-44.348,29.908-60.031
		c6.53-10.729,15.118-20.09,17.295-24.5c9.901-20.06-0.978-20.75-4.788-41.007c-2.646-14.065-0.007-31.297-0.007-45.595
		c0-26.934,6.005-53.946,13.5-78.398c-17.594-5.161-21.461-30.248-21.493-45.441c-0.39,10.861,9.229,19.073,17.939,23.733
		c15.644-15.261,18.005-29.562,20.054-50.293c0.884-8.964-3.037-18.736-4.605-27.468c-1.482-8.25-2.21-40.983,6.117-46.18
		c3.676-2.295,3.407-0.588,6.613,1.022c2.56,1.286,5.766,6.655,8.875,6.626c5.192-0.049,3.778-6.873,7.516-8.998
		c4.351-2.474,5.366,0.188,9.096,1.385c3.56,1.142,15.897,4.276,18.889,3.113c3.347-1.302,1.584-6.551,5.126-4.624
		c7.489,4.076,12.981,52.01,11.874,59.624c-0.699,4.807-7.444-20.123-19.5-27c-10.247-5.846-35.64,5.342-40.5,16.5
		c-6.854,15.733-24.997,137.178-26.5,155c-1.915,22.712,7.445,31.39,11.5,65c5.779,47.908-14.713,61.981-37.5,103.673
		c-12.281,22.471-36.54,118.087-67,120.327"/>
	<path fill="#FFFFFF" stroke="#000000" stroke-width="10" stroke-miterlimit="10" d="M100.451,525.195
		c-11.101-13.945-15.323-24.373-7.491-50.376c7.771-25.802,36.833-53.745,66.396-37.869c20.593,11.059,22.644,42.574,20.967,62.957
		C177.438,534.99,124.826,555.815,100.451,525.195z"/>
	<path fill="#FFFFFF" stroke="#000000" stroke-width="10" stroke-miterlimit="10" d="M-0.725,525.195
		c11.101-13.945,15.323-24.373,7.491-50.376c-7.771-25.802-36.833-53.745-66.396-37.869c-20.593,11.059-22.644,42.574-20.967,62.957
		C-77.711,534.99-25.1,555.815-0.725,525.195z"/>
	<path stroke="#DE1E32" stroke-width="9" stroke-miterlimit="10" d="M122.834,493.184c-17.091-12.862,0.798-40.659,15.566-26.828
		C151.07,478.225,137.123,502.256,122.834,493.184z"/>
	<path stroke="#DE1E32" stroke-width="9" stroke-miterlimit="10" d="M-23.831,493.184c17.09-12.862-0.798-40.659-15.565-26.828
		C-52.067,478.225-38.119,502.256-23.831,493.184z"/>
	<path fill="none" stroke="#000000" stroke-width="10" stroke-miterlimit="10" d="M92.241,460.771
		c2.779-13.75,9.338-25.756,21.735-32.549c15.694-8.6,36.959-10.128,54.594-9.449c10.557,0.406,23.734,4.297,28.854,14.667
		c2.74,5.552,4.249,18.263-3.183,20.665"/>
	<path fill="none" stroke="#000000" stroke-width="10" stroke-miterlimit="10" d="M6.241,462.104
		c3.272-35.94-50.976-53.628-76.928-56.013c-10.843-0.996-19.835,3.439-25.608,12.551c-2.938,4.637-6.169,14.971-2.13,19.462"/>
	<path d="M32.241,541.438C31.138,536.697,33.55,546.247,32.241,541.438c-1.36-5.005-7.992-50.081-8.202-55.256
		c-0.618-15.243,4.795-37.121,2.202-52.152c-3.25-18.841-7-22.091-17.383-28.456c10.59,1.711,15.017-12.291,18.262-20.045
		c20.704-4.335,10.683,65.207,8.454,73.783C24.281,502.771,32.241,516.45,32.241,541.438z"/>
	<path stroke="#000000" stroke-width="12" stroke-miterlimit="10" d="M10.241,370.771c-4.694-24.131,42.073-23.062,54.138-16.614
		c19.862,10.614,24.438,22.942,27.031,28.057c1.294-6.223,1.257-12.735,4.964-18.075c3.877-5.585,10.881-8.391,15.928-12
		c-10.646-5.253-11.249-16.837-62.727-16.504c-9.733,0.063-33.335,7.955-38.717,16.339c-2.644,4.119-5.294,14.995,0.05,18.13
		L10.241,370.771z"/>
	<path d="M-60.759,305.438c46.992-33.926,79.063-3.341,129.414-13.929c23.749-4.994,51.059-19.837,76.07-10.869
		c17.107,6.135,20.522,20.969,21.719,36.837c11.973-30.776-17.664-56.757-27.227-84.853c-11.119-32.67-23.522-65.658-26.916-99.187
		c-2.947-29.126-8.169-60.758-35.214-69.97C47,53.219,16.845,60.325-9.69,75.537c4.767,7.02,14.941,8.938,18.798,16.958
		c4.171,8.672,1.299,24.844-0.05,33.752c-3.712,24.521-30.935,85.287-40.482,106.917C-36.025,243.591-51.481,298.438-60.759,305.438
		z"/>
	<path fill="none" stroke="#000000" stroke-width="10" stroke-miterlimit="10" d="M-44.759,343.438
		c1.332-16.669-14.964-25.121-26.003-34.972c-10.073-8.987-23.99-27.353-11.997-41.028"/>
	<path fill="none" stroke="#000000" stroke-width="10" stroke-miterlimit="10" d="M142.241,349.438
		c4.773-3.706,2.218-11.659,5.199-16.94c3.41-6.04,3.926-4.037,8.653-7.308c4.396-3.042,9.319-5.278,13.199-9.003
		c10.612-10.192,13.718-22.088,15.948-35.749"/>
	<path fill="#731200" stroke="#000000" stroke-miterlimit="10" d="M10.832,78.84c-4.889,32.639,69.479,35.958,73.921,4.892
		c2.041-14.273-24.913-18.725-37.672-19.969C27.961,61.9,18.417,65.531,7.832,80.34"/>
	<path fill="#FFFFFF" d="M-35.092,277.438c0.919-20.524,22.725-66.712,32-84.667c3.44,6.878,4.962,26.154,11.392,25.852
		c15.479-0.729,30.763,1.086,46.222,0.297c10.503-0.536,23.562,2.571,33.648-0.151c4.548-1.227,9.583-24.446,14.071-25.998
		c5.311,8.973,15.28,35.574,22.314,43.5c7.956,8.965,13.014,20.915,21.03,29.228c-18.588-0.216-34.924-3.34-53.646-1.875
		c-21.467,1.679-42.9,5.281-64.045,9.281C10.538,276.187-30.848,278.922-35.092,277.438"/>
</symbol>
<use xlink:href="#devil"  width="1305.518" height="2232.828" x="-652.759" y="-1116.414" transform="matrix(0.12 0 0 -0.12 78.3311 134.1406)" overflow="visible"/>
</svg>
