<?xml version="1.0" encoding="utf-8"?>
<!-- Generator: Adobe Illustrator 16.0.0, SVG Export Plug-In . SVG Version: 6.00 Build 0)  -->
<!DOCTYPE svg PUBLIC "-//W3C//DTD SVG 1.1//EN" "http://www.w3.org/Graphics/SVG/1.1/DTD/svg11.dtd">
<svg version="1.1" id="Layer_1" xmlns="http://www.w3.org/2000/svg" xmlns:xlink="http://www.w3.org/1999/xlink" x="0px" y="0px"
	 width="17.917px" height="34.384px" viewBox="0 0 17.917 34.384" enable-background="new 0 0 17.917 34.384" xml:space="preserve">
<path fill="#332524" stroke="#01838F" stroke-miterlimit="10" d="M17.405,15.585c-0.072,0.026-1.479,1.338-1.581,1.439
	c-0.391,0.392-0.788,1.644-0.853,1.911c0.117-1.282,1.646-3.514,0.886-5.387c0.006-0.359-0.003-0.738,0.055-1.141
	c0.157-1.102,0.635-2.145,1.129-3.217c0.477-1.034,0.921-1.591,0.872-2.741c-0.035-0.828,0.061-2.149-0.223-2.843
	c-0.335-0.819-1.221-1.516-1.956-1.957c-0.698-0.419-1.413-1.068-2.162-1.365c0.381,0.701,0.904,1.278,1.366,1.92
	c0.27,0.375,0.507,0.764,0.838,1.089c0.204,0.202,0.5,0.341,0.595,0.633c0.152,0.463-0.223,1.121-0.226,1.601
	c-0.002,0.527,0.235,0.793,0.044,1.222c-0.14,0.316-0.508,0.617-0.694,0.92c-0.134,0.217-0.224,0.475-0.362,0.696
	c-0.381,0.61-0.793,0.711-1.342,1.105c-0.274,0.197-1.433,1.459-1.444,2.075c-0.755,0.03-1.698,0.105-3.14-0.107
	c-0.649-0.289-1.325-0.382-1.975-0.354c0.161-0.557-1.138-1.979-1.432-2.19C5.253,8.502,4.841,8.4,4.459,7.791
	C4.32,7.569,4.231,7.312,4.098,7.095C3.91,6.791,3.542,6.49,3.402,6.174c-0.19-0.428,0.047-0.695,0.044-1.222
	C3.443,4.472,3.07,3.815,3.222,3.352C3.316,3.06,3.612,2.921,3.817,2.719c0.33-0.326,0.566-0.715,0.836-1.09
	C5.116,0.988,5.64,0.41,6.02-0.29C5.271,0.007,4.556,0.655,3.858,1.075C3.124,1.516,2.237,2.213,1.903,3.031
	C1.62,3.726,1.714,5.046,1.68,5.874c-0.048,1.15,0.396,1.708,0.872,2.741c0.494,1.072,0.973,2.116,1.129,3.218
	c0.087,0.603,0.024,1.154,0.085,1.658c-0.2,0.692-0.192,1.359-0.072,2.096c0.134,0.808,0.474,1.605,0.399,2.455
	c-0.006,0.065-0.025,0.126-0.034,0.19c-0.309-1.381-1.741-1.867-2.121-3.248c-1.359,0.058-0.832,2.48-0.58,3.213
	c0.197,0.579,0.58,1.114,0.777,1.706c0.191,0.574-0.029,1.248-0.058,1.922c-0.021,0.5-0.101,0.486-0.307,0.914
	c-0.146,0.303-0.269,0.566-0.165,0.943c0.259,0.938,0.75,0.33,0.975-0.238c0.211-0.536,0.46-1.033,0.69-1.533
	c0.006,0.433,0.089,0.86,0.306,1.375c0.372,0.883,0.869,1.678,1.003,2.648c0.271,1.955,0.951,3.764,1.878,5.588
	c0.458,0.9-0.008,1.297,0.062,1.623c0.061,0.281,0.148,0.605,0.396,0.768c0.282,0.182,1.743,0.041,1.913-0.021
	c0.146-0.054,0.24-0.164,0.303-0.281c0.002,0.772,1,0.4,1.227,0.344c1.614-0.414,0.471-1.695,2.702-3.814
	c0.485-0.461,0.78-2.051,0.896-2.689c0.11-0.598,0.117-1.152,0.309-1.74c0.161-0.494,0.497-2.076,0.528-2.598
	c0.335,0.412,0.677,1.057,1.177,1.057c0.661,0,0.485-1.766,0.5-2.496c0.344-0.33,1.126-2.456,1.028-3.207
	C17.305,16.969,18.056,15.344,17.405,15.585z"/>
<g>
	<path fill="#331F1C" d="M12.253,12.171c-1.08-0.116,0.76-2.154,1.114-2.409c0.549-0.394,0.961-0.496,1.342-1.105
		c0.139-0.221,0.229-0.479,0.362-0.696c0.187-0.304,0.555-0.604,0.694-0.92c0.191-0.429-0.046-0.694-0.044-1.222
		c0.003-0.48,0.377-1.138,0.226-1.601c-0.095-0.292-0.391-0.431-0.595-0.633c-0.331-0.326-0.568-0.714-0.838-1.089
		c-0.462-0.642-0.985-1.219-1.366-1.92c0.749,0.297,1.464,0.946,2.162,1.365c0.734,0.441,1.621,1.138,1.955,1.957
		c0.283,0.694,0.188,2.015,0.224,2.843c0.048,1.15-0.396,1.708-0.872,2.741c-0.495,1.072-0.973,2.115-1.13,3.217
		c-0.17,1.19,0.244,2.181-0.869,3c-0.374-1.781-0.919-2.719-2.541-3.468L12.253,12.171z"/>
	<path fill="#331F1C" d="M6.491,11.596c1.081-0.116-0.758-2.154-1.114-2.41C4.829,8.792,4.417,8.69,4.035,8.081
		C3.896,7.859,3.807,7.602,3.673,7.385C3.486,7.081,3.118,6.78,2.978,6.464c-0.19-0.428,0.047-0.695,0.043-1.222
		c-0.002-0.48-0.375-1.137-0.225-1.601C2.892,3.35,3.188,3.211,3.393,3.009c0.33-0.326,0.567-0.715,0.837-1.09
		C4.691,1.278,5.215,0.7,5.595,0C4.847,0.297,4.132,0.945,3.434,1.365C2.7,1.806,1.812,2.503,1.479,3.321
		C1.196,4.016,1.29,5.336,1.255,6.164C1.207,7.314,1.65,7.872,2.127,8.905c0.494,1.072,0.973,2.116,1.13,3.218
		c0.171,1.189-0.245,2.179,0.869,2.999c0.374-1.781,0.919-2.718,2.542-3.468L6.491,11.596z"/>
	<path fill="#331F1C" d="M3.656,18.588c-0.274-1.437-1.754-1.91-2.142-3.314c-1.359,0.058-0.832,2.48-0.581,3.213
		c0.198,0.579,0.581,1.113,0.777,1.705c0.191,0.574-0.029,1.248-0.057,1.922c-0.021,0.5-0.101,0.486-0.307,0.914
		c-0.146,0.303-0.269,0.566-0.166,0.943c0.259,0.938,0.75,0.33,0.975-0.238c0.475-1.203,1.15-2.215,1.335-3.484
		C3.572,19.703,3.656,19.175,3.656,18.588"/>
	<path fill="#331F1C" d="M8.784,11.73c3.24,0.478,3.969-0.5,5.674,0.853c2.543,2.017,0.233,5.058,0.089,6.644
		c0.064-0.268,0.462-1.52,0.853-1.911c0.102-0.102,1.508-1.413,1.58-1.439c0.651-0.241-0.1,1.384,0.095,2.88
		c0.098,0.75-0.685,2.875-1.028,3.206c-0.015,0.73,0.16,2.496-0.5,2.496c-0.5,0-0.842-0.645-1.177-1.057
		c-0.031,0.521-0.367,2.104-0.528,2.598c-0.191,0.588-0.198,1.143-0.309,1.74c-0.116,0.639-0.411,2.229-0.896,2.689
		c-2.232,2.119-1.088,3.4-2.702,3.814c-0.256,0.064-1.502,0.537-1.179-0.699c0.085-0.326,0.134,0.461-0.351,0.637
		c-0.17,0.062-1.63,0.203-1.913,0.021c-0.248-0.162-0.335-0.486-0.396-0.768c-0.07-0.326,0.396-0.723-0.062-1.623
		c-0.927-1.824-1.608-3.633-1.878-5.588c-0.134-0.971-0.631-1.766-1.002-2.648c-0.432-1.025-0.336-1.707-0.146-2.77
		c0.152-0.85,0.586-1.617,0.662-2.473c0.074-0.85-0.266-1.647-0.399-2.455c-0.158-0.96-0.13-1.801,0.311-2.735
		C4.236,11.754,6.668,10.789,8.784,11.73z"/>
	<path fill="#4E3033" d="M6.434,33.676c0,0.014-0.001,0.027-0.001,0.041C6.434,33.703,6.434,33.689,6.434,33.676z"/>
	<path fill="#4E3033" d="M7.785,21.812c-0.033,0.113-0.001,0.287,0.009,0.402c0.573,0.168,1.742,0.441,2.042-0.273
		c-0.788,0.162-1.209,0.211-1.877-0.311c-0.107,0.068-0.152,0.17-0.175,0.301"/>
	<path fill="#BE3A26" d="M11.458,20.969c1.329-0.41,2.245,0.422,2.23,1.465c-0.566-0.035-0.54-0.535-1.09-0.623
		c-1-0.164-1.186,0.703-1.519,0.6C10.4,22.197,11.039,21.123,11.458,20.969z"/>
	<path fill="#BE3A26" d="M8.949,12.175c-0.601-0.079-1.077-0.43-1.714-0.478c-0.557-0.042-1.35-0.072-1.857,0.179
		c-0.625,0.308-1.25,1.149-1.547,1.764c-0.716,1.485,0.301,3.046,0.217,4.569c-0.294-0.043-0.718,1.453-0.822,1.757
		c-0.398,1.176-0.15,2.229,0.209,3.365c0.311,0.984,2.16,6.77,2.559,7.736c-0.014-0.957-1.759-6.916-1.717-7.869
		c0.027-0.604,0.251-0.811,0.835-1.18c0.562-0.355,1.894,0.307,2.049-0.363c0.239-1.031-2.352-0.482-2.885-0.795
		c-0.498-0.291,0.169-1.767,0.317-2.25c0.225-0.73,0.467-1.168,0.288-1.984c-0.43-1.965,0.467-3.617,2.168-4.55
		c0.579-0.317,1.233-0.4,1.678,0.141"/>
	<path fill="#BE3A26" d="M12.122,24.818c-0.226,0.322-0.39,0.74-0.566,1.094c-0.217,0.434-0.516,0.844-0.617,1.32
		c-0.243,1.146-0.264,2.188-0.468,3.322c-0.052,0.289-0.3,1.006-0.609,1.145c-0.242,0.107-0.809-0.047-1.094-0.061
		c-0.181-0.01-0.355-0.039-0.54-0.029c-0.252,0.012-0.626,0.055-0.833,0.221c-0.224,0.178-0.595,0.734-0.746,0.979
		c0.172-0.422,1.61-0.547,1.991-0.525c0.355,0.021,0.649,0.137,0.889,0.391c0.266,0.279,0.355,0.465,0.661,0.053
		c0.275-0.371,0.491-0.867,0.603-1.311c0.123-0.486,0.136-0.99,0.184-1.486c0.055-0.574,0.185-1.133,0.257-1.705
		c0.089-0.713,0.158-1.428,0.335-2.127c0.107-0.428,0.312-0.828,0.406-1.25"/>
	<path fill="#BE3A26" d="M16.017,4.762c-0.052,0.433-0.174,0.829-0.09,1.262c0.083,0.431,0.366,0.895,0.209,1.346
		c-0.148,0.425-0.662,0.698-0.884,1.103c-0.302,0.551,0.001,0.855-0.584,1.135c-0.751,0.358-1.495,1.475-1.568,3.224
		c-0.152-0.39-1.184-0.789-1.039-1.257c0.124-0.4,0.513-0.763,0.81-1.042c0.589-0.555,1.284-1.02,1.801-1.66
		c0.481-0.595,1.111-1.39,1.11-2.171c0-0.308-0.015-0.61-0.029-0.911c-0.008-0.157-0.025-0.344-0.001-0.498
		c0.051-0.35,0.305-0.633,0.432-0.965c-0.141,0.236-0.107,0.518-0.107,0.788"/>
	<path fill="#BE3A26" d="M16.399,16.611c-0.138,0.208-0.515,0.4-0.705,0.588c-0.307,0.302-0.516,0.604-0.676,1.001
		c-0.312,0.767-0.427,1.453-0.469,2.265c-0.037,0.711-0.22,1.514,0.001,2.205c0.111,0.352,0.885,1.752,1.278,0.971
		c0.203-0.402-0.236-1.572-0.387-1.941c-0.246-0.609-0.438-1.166-0.258-1.82c0.167-0.608,0.449-1.147,0.532-1.785
		c0.054-0.404,0.067-0.662,0.37-0.959c0.181-0.177,0.363-0.309,0.486-0.523c-0.049,0.059-0.111,0.077-0.174,0.116"/>
	<path fill="#BE3A26" d="M7.568,16.248c0,0,0.441,0.332,0.674,1.483c0.24,1.19,0.038,2.443-0.065,3.416
		c1.138-0.152,0.87-2.812,0.626-3.68C8.286,15.615,7.568,16.248,7.568,16.248z"/>
	<path fill="#BE3A26" d="M3.569,1.415C2.742,1.977,1.751,2.388,1.53,3.456C1.307,4.534,1.151,6.128,1.593,7.168
		c0.465,1.093,1.109,1.966,1.48,3.101c0.272,0.835,0.401,1.681,0.442,2.557c0.012,0.248-0.021,0.511,0.064,0.745
		c0.61-0.716,0.101-1.609,0.077-2.488C3.611,9.51,2.232,8.146,1.937,6.573C1.684,5.228,1.527,3.566,2.469,2.47
		c0.528-0.615,1.268-0.905,1.816-1.485C4.374,0.892,4.457,0.78,4.533,0.682C4.333,0.864,4.173,1.122,3.966,1.284
		C3.744,1.458,3.562,1.456,3.305,1.547"/>
	<path fill="#BE3A26" d="M9.828,14.868c0.456,0.077,1.11-0.685,2.567,0.66c0.629,0.58,0.539,1.375,0.903,2.078
		c-0.024-0.944,0.146-2.251-0.646-2.86C11.22,13.646,10.123,14.48,9.828,14.868z"/>
	<path fill="#BE3A26" d="M1.172,18.924c0.362,0.652,0.926,1.154,0.859,1.925C2,21.213,2.06,21.754,1.944,22.082
		c-0.034,0.096-0.247,0.555-0.308,0.693c-0.118,0.271-0.254,0.361-0.222,0.707c0.017,0.176,0.096,0.479,0.199,0.59
		c0.143-0.209,0.129-0.492,0.212-0.732c0.106-0.305,0.239-0.465,0.437-0.699c0.179-0.213,0.146-0.385,0.145-0.676
		c-0.001-0.5,0.22-0.979,0.207-1.461c-0.017-0.592-0.869-0.979-1.221-1.419c-0.245-0.307-0.497-0.63-0.543-1.009
		c-0.067-0.542-0.084-1.334,0.375-1.703c0.239,0.176,0.556,0.3,0.737,0.521c0.024-0.407-0.019-0.959-0.465-1.139
		c-0.253-0.103-0.676-0.262-0.823,0.387C0.525,16.791,0.683,18.042,1.172,18.924z"/>
	<path fill="#FFFFFF" stroke="#000000" stroke-width="0.5" stroke-miterlimit="10" d="M10.261,17.352
		c-0.326,0.41-0.451,0.716-0.22,1.481c0.229,0.758,1.083,1.579,1.952,1.114c0.605-0.326,0.666-1.252,0.616-1.852
		C12.525,17.064,10.977,16.452,10.261,17.352z"/>
	<path fill="#FFFFFF" stroke="#000000" stroke-width="0.5" stroke-miterlimit="10" d="M7.286,17.352
		c0.327,0.41,0.451,0.716,0.221,1.481c-0.229,0.758-1.083,1.579-1.952,1.114c-0.605-0.326-0.666-1.252-0.617-1.852
		C5.023,17.064,6.57,16.452,7.286,17.352z"/>
	<path stroke="#DE1E32" stroke-width="0.25" stroke-miterlimit="10" d="M10.918,18.293c-0.502,0.378,0.024,1.195,0.458,0.788
		C11.75,18.733,11.339,18.027,10.918,18.293z"/>
	<path stroke="#DE1E32" stroke-width="0.25" stroke-miterlimit="10" d="M6.607,18.293c0.502,0.378-0.024,1.195-0.458,0.788
		C5.777,18.733,6.187,18.027,6.607,18.293z"/>
	<path fill="none" stroke="#181010" stroke-width="0.75" stroke-miterlimit="10" d="M10.019,19.247
		c0.082,0.404,0.275,0.757,0.64,0.957c0.461,0.252,1.086,0.297,1.604,0.277c0.311-0.012,0.698-0.125,0.849-0.432
		c0.08-0.162,0.125-0.535-0.094-0.607"/>
	<path fill="none" stroke="#181010" stroke-width="0.75" stroke-miterlimit="10" d="M7.491,19.208
		c0.097,1.056-1.499,1.576-2.261,1.646c-0.318,0.029-0.583-0.102-0.753-0.369c-0.086-0.137-0.181-0.439-0.062-0.572"/>
	<path d="M8.165,17.404c-0.033,0.14,0.007,0.061-0.031,0.202c-0.041,0.147-0.113,0.741-0.12,0.893
		c-0.018,0.448,0.141,1.091,0.064,1.535c-0.096,0.553-0.206,0.648-0.511,0.836c0.311-0.051,0.441,0.361,0.537,0.59
		c0.608,0.127,0.261-1.91,0.249-2.169C8.293,18.029,8.165,18.138,8.165,17.404z"/>
	<path fill="none" stroke="#181010" stroke-width="0.75" stroke-miterlimit="10" d="M7.609,21.893
		c-0.138,0.709,1.237,0.678,1.592,0.488c0.584-0.312,0.718-0.674,0.794-0.824c0.038,0.182,0.037,0.373,0.146,0.531
		c0.114,0.164,0.319,0.246,0.468,0.352c-0.312,0.156-0.331,0.496-1.844,0.486c-0.286-0.002-0.98-0.234-1.138-0.48
		c-0.078-0.121-0.156-0.441,0.001-0.533L7.609,21.893z"/>
	<path d="M5.521,23.812c1.382,0.998,2.324,0.098,3.804,0.41c0.698,0.146,1.502,0.582,2.237,0.32
		c0.502-0.182,0.603-0.617,0.638-1.084c0.353,0.904-0.519,1.668-0.801,2.494c-0.327,0.961-0.691,1.932-0.791,2.916
		c-0.087,0.857-0.24,1.787-1.035,2.057c-0.885,0.303-1.771,0.094-2.551-0.354c0.14-0.207,0.439-0.264,0.552-0.5
		c0.123-0.254,0.039-0.73-0.001-0.992c-0.109-0.721-0.909-2.506-1.19-3.143C6.249,25.631,5.794,24.018,5.521,23.812z"/>
	<path fill="none" stroke="#181010" stroke-width="0.75" stroke-miterlimit="10" d="M6.364,22.756
		c0.039,0.49-0.439,0.738-0.765,1.029c-0.296,0.264-0.705,0.803-0.353,1.205"/>
	<path fill="none" stroke="#181010" stroke-width="0.75" stroke-miterlimit="10" d="M11.49,22.52
		c0.14,0.109,0.065,0.342,0.152,0.498c0.101,0.178,0.115,0.117,0.254,0.215c0.13,0.09,0.274,0.154,0.389,0.264
		c0.312,0.299,0.403,0.65,0.469,1.053"/>
	<path fill="#731200" stroke="#000000" stroke-width="0.12" stroke-miterlimit="10" d="M7.626,30.475
		c-0.144-0.959,2.043-1.057,2.173-0.145c0.061,0.42-0.732,0.551-1.107,0.588c-0.562,0.055-0.843-0.053-1.154-0.488"/>
	<path fill="#FFFFFF" d="M6.276,24.635c0.026,0.605,0.668,1.963,0.94,2.49c0.102-0.201,0.146-0.77,0.335-0.76
		c0.456,0.021,0.905-0.031,1.359-0.01c0.31,0.016,0.692-0.074,0.989,0.006c0.134,0.035,0.282,0.719,0.414,0.764
		c0.156-0.264,0.449-1.045,0.656-1.279c0.234-0.262,0.383-0.615,0.619-0.857c-0.547,0.006-1.027,0.098-1.578,0.055
		c-0.631-0.051-1.261-0.156-1.883-0.273C7.618,24.674,6.401,24.592,6.276,24.635"/>
</g>
<g>
</g>
</svg>
