<?xml version="1.0" encoding="utf-8"?>
<!-- Generator: Adobe Illustrator 16.0.0, SVG Export Plug-In . SVG Version: 6.00 Build 0)  -->
<!DOCTYPE svg PUBLIC "-//W3C//DTD SVG 1.1//EN" "http://www.w3.org/Graphics/SVG/1.1/DTD/svg11.dtd">
<svg version="1.1" xmlns="http://www.w3.org/2000/svg" xmlns:xlink="http://www.w3.org/1999/xlink" x="0px" y="0px"
	 width="246.889px" height="151.432px" viewBox="0 0 246.889 151.432" enable-background="new 0 0 246.889 151.432"
	 xml:space="preserve">
<symbol  id="flame-tall-1" viewBox="-28.911 -69.14 57.822 138.279">
	<path fill="#CE5427" d="M-8.407-62.196c-9.075,5.659-14.006,25.23-11.135,35.158c1.331,4.604,4.227,7.677,4.647,12.748
		C-14.07-4.313-21.5,1.876-25.514,10.252c-3.098,6.467-4.801,17-1.918,23.965c1.871,4.52,5.664,8.626,7.912,12.95
		c4.671,8.992-0.205,13.899-3.447,21.972c3.06-3.955,8.895-6.195,9.96-11.445c1.236-6.094-4.479-10.687-6.425-15.988
		c-3.905-10.65,1.252-19.034,5.661-28.291c3.347-7.027,2.513-14.02,2.949-21.569C-8.892-6.263-9.765-1.01-8.78,1.941
		c1.726,5.169,5.822,8.781,4.947,14.838c-0.77,5.322-2.992,9.132-2.586,14.75c0.393,5.433,3.034,9.49,4.547,14.681
		c-1.604-7.046-0.292-14.254,2.078-20.919C4.036,14.525,5.624,4.252-0.155-6.356c-4.264-7.826-5.998-14.285-4.287-23.461
		c1.195-6.407,3.71-14.117,5.949-20.224c-0.028,9.762,6.777,14.854,9.985,23.324c3.064,8.089-2.19,17.118,1.085,24.95
		c3.542-15.872-4.466-34.137,3.905-48.909c0,6.959,6.577,10.965,7.645,17.562c0.536,3.312-0.623,6.854,0.155,10.151
		c0.735,3.117,2.882,6.882,4.299,9.736c-4.281-7.15-1.761-17.317-0.339-24.918c1.29-6.898,0.727-11.667-1.795-18.113
		c-1.418-3.624-3.038-9.452-6.341-11.452C16.16-70.096,5.488-70.25-8.407-62.196z"/>
</symbol>
<symbol  id="flame-yellow-1" viewBox="-90.719 -53.145 181.437 106.29">
	<path fill="#DFB72B" d="M-75.146-52.637c-16.496,0-19.24,18.213-11.273,30.219C-75.582-6.083-64.91,1.251-64.146,23.061
		c-2.637-11.355,3.527-21.609,1.023-33.696c-1.268-6.121-7.566-11.567-6.07-18.049c1.885-8.165,12.459-9.798,18.896-10.823
		c0.718,4.446-2.333,10.869-0.648,14.673c2.027,4.58,7.887,5.024,10.098,10.199c4.301,10.065-0.44,21.747-6.943,29.118
		C-26.372,0.927-40.702-18.35-29.2-35.302c2.132,10.936,12.589,6.488,20.587,9.641C4.192-20.614-2.791-11.667-0.197-0.788
		C4.7,19.75,21.441,30.314,20.877,53.145c-3.1-16.5-1.073-30.152-6.549-46.004c-3.467-10.035-2.696-15.112,2.259-24.507
		c2.247-4.259,9.474-22.844,14.125-24.437c5.415-1.854,17.477,9.234,19.223,14.166c2.426,6.848-1.166,10.562-2.295,16.698
		C45.209,2.27,53.255,3.373,56.93,14.038c-3.747-10.313,1.805-18.306,4.727-27.897c2.548-8.365,2.909-16.957,3.327-25.696
		C83.235-33.8,66.043-2.883,76.907,7.03C76.528-10.449,96.418-30.724,89.1-47.66c-0.754-1.745-0.352-4.977-7.217-4.977
		C49.277-52.637-43.032-52.637-75.146-52.637z"/>
	<radialGradient id="SVGID_1_" cx="4.1694" cy="-22.9419" r="58.7363" gradientUnits="userSpaceOnUse">
		<stop  offset="0" style="stop-color:#F9ED32"/>
		<stop  offset="1" style="stop-color:#F1822C"/>
	</radialGradient>
	<path fill="url(#SVGID_1_)" d="M-61.479-51.971c-5.994,3.715-14.394,10.15-10.916,17.917c1.203,2.688,3.344,3.547,5.414,5.156
		c2.235,1.738,3.832,3.648,5.178,6.26c2.58,5.004,0.117,10.312,2.342,15.242c1.966,4.357,6.665,9.646,3.624,14.656
		c1.555-5.334,6.011-9.406,2.364-14.881c-1.758-2.642-3.275-3.2-2.598-7.026c0.514-2.906,2.575-5.582,1.107-8.583
		c-1.104-2.258-4.801-2.9-5.441-5.148c-1.214-4.251,4.467-4.382,7.014-5.854c5.142-2.97,5.474-8.229,4.91-13.64
		c-0.44,2.685,2.304,2.79,3.342,4.6c1.39,2.425,0.656,8.915,0.709,11.618c2.75-0.735,1.873-5.641,1.949-7.942
		c0.088-2.655,0.549-4.365,1.933-6.64c-0.685,3.521,2.313,3.868,5.124,3.872c1.98,0.004,1.889-1.057,3.854,0.178
		c2.039,1.282,2.607,4.612,2.424,6.766c-0.176-3.281,1.049-6.116,1.903-8.873c0.96,2.429,3.498,1.928,4.361,3.642
		c1.364,2.707-2.209,6.359-2.964,8.666c-2.166,6.616,1.425,11.488,1.625,17.837c-2.684-13.77,11.791-23.72,7.711-37.438
		c1.188,2.537,1.886,3.923,4.625,4.713c2.387,0.688,4.727-0.505,6.427,1.854c2.409,3.347-4.363,8.936,0.912,10.362
		c1.826-4.565,2.71-9.445,4.788-13.901c-0.395,2.25-2.464,4.692-1.953,6.936c0.457,2.003,3.032,3.824,3.829,5.847
		c2.279,5.786-0.384,11.163-4.979,14.539C-11.088-15.192-7.197-10.083-3.122-2.4c-0.736-9.849,3.782-13.186,9.406-20.562
		c4.109-5.391,4.363-11.121,4.213-17.609c1.751,4.071,3.181,4.978,6.433,7.595c5.021,4.042,4.426,8.424,2.576,14.058
		c-2.277,6.938-3.651,19.95,5.399,23.115C20.6-6.085,30.879-14.378,31.187-24.221c0.195-6.257-1.706-12.866-3.027-18.946
		c0.197,2.785,3.29,3.823,5.021,5.263c2.409,2.001,3.115,3.921,4.308,6.837c-1.302-5.048-1.768-15.397,3.975-18.145
		c-0.647,8.181,7.874,1.693,11.758,2.641c8.721,2.125,2.13,11.549,4.946,16.852c1.516,2.854,3.992,4.01,4.77,7.335
		c0.833,3.562-0.57,6.996-1.497,10.415c-0.873,3.218-1.337,4.177-0.186,7.074c0.806,2.031,2.312,3.883,2.267,6.164
		c-0.739-5.772,0.321-10.694,2.994-15.876c2.487-4.821,3.646-7.632,3.691-13.321c0.029-3.613-2.413-6.737-2.448-10
		c-0.032-2.97,3.229-3.072,3.48-6.669c4.37,0.632,3.326,8.722,4.94,11.873c2.139-2.978,0.782-8.378,1.096-11.868
		c2.329-0.542,4.134,0.469,4.266,2.862c-0.057-3.391,0.093-6.814-0.062-10.188C56.9-52.659,30.78-54.371,6.167-51.702
		c-8.075,0.876-16.324,2.045-24.452,2.065c-5.199,0.014-10.262-1.008-15.52-1c-4.248,0.005-27.33,2.26-28.34-1.666"/>
</symbol>
<g id="fire-back">
	
		<use xlink:href="#flame-tall-1"  width="57.822" height="138.279" x="-28.911" y="-69.14" transform="matrix(-0.8 0 0 -0.8 158.4709 92.2351)" overflow="visible"/>
	
		<use xlink:href="#flame-tall-1"  width="57.822" height="138.279" x="-28.911" y="-69.14" transform="matrix(0.8 0 0 -0.8 92.676 86.7986)" overflow="visible" enable-background="new    "/>
	
		<radialGradient id="SVGID_2_" cx="447.3372" cy="-153.5071" r="77.2852" gradientTransform="matrix(1 0 0 -2 -281.5 -233.6853)" gradientUnits="userSpaceOnUse">
		<stop  offset="0" style="stop-color:#ED1C24"/>
		<stop  offset="1" style="stop-color:#F1822C"/>
	</radialGradient>
	<path fill="url(#SVGID_2_)" d="M88.066,128.834c-1.852-6.18-4.61-11.716-2.555-18.399c1.112-3.617,3.861-7.315,6.646-9.851
		c1.799-1.639,4.993-2.766,6.338-4.852c2.249-3.49,1.173-9.074,1.172-13.213c0-6.105-0.597-12.093-0.82-18.162
		c-0.177-4.771-0.977-11.63,1.623-15.842c2.709-4.39,4.848-4.66,4.798-10.48c-0.046-5.311-7.249-14.848-2.37-19.111
		c-0.42,6.095,2.886,9.914,5.227,15.188c2.021,4.554,1.909,9.429,1.941,14.374c0.049,7.052-0.633,14.237,1.166,21.128
		c1.438,5.512,4.854,10.435,6.062,16.005c-0.034-5.284-0.507-8.228,1.994-13.103c0.95-1.854,2.14-3.72,2.767-5.716
		c1.161-3.696,0.155-2.756-1.114-6.506c-2.024-5.983,5.545-8.094,6.336-13.842c0.507-3.674-1.377-7.236-0.839-10.836
		c0.292-1.952,1.646-3.554,1.94-5.616c0.94-6.586-0.125-10.758,3.769-16.438c2.841-4.144,5.128-8.496,3.64-13.561
		c-2.696,5.948-1.985,14.444-2.139,20.825c-0.271,11.302-0.09,21.815,2.549,32.792c1.353,5.627,1.451,10.898,1.472,16.664
		c0.014,3.555-1.185,6.794-1.174,10.2c11.43-10.859,1.967-27.497,6.618-40.495c2.168-6.055,6.957-11.653,8.095-18.056
		c0.727-4.1-0.979-8.144-0.732-12.221c-0.322,6.471-1.149,11.796-0.104,18.529c0.946,6.103,2.608,12.093,2.92,18.278
		c0.299,5.934-2.525,10.197-3.14,15.9c-0.576,5.346,1.07,9.071,2.248,14.001c1.523,6.377,0.648,14.322,0.472,20.812
		c-0.134,4.781-0.853,9.679-0.431,14.476c0.394,4.445,1.763,8.482,1.629,13.029c-0.496-3.213,2.685-8.474,5.841-9.08
		c3.031,5.641,3.981,14.184,9.698,17.881c0.192-3.356-0.149-6.442,1.572-9.545c1.072-1.933,4.301-3.731,4.021-5.746
		c-2.271,5.168,0.473,12.56,0.971,18.11c3.16-1.544,5.059-6.995,8.619-6.692c1.521,3.392,2.537,7.603,5.221,10.264
		c0-4.336,4.076-9.409,7.617-11.471c-3.862,6.394,0.312,10.179,1.15,16.154c0.84-4.467-0.855-6.025,2.583-9.771
		c3.041-3.311,7.179-4.84,11.807-5.247c-4.976,4.286-2.374,7.602-2.249,13.122c1.555-1.372,3.496-2.317,5.52-2.653
		c1.945,4.408,7.174,3.469,11.201,3.56c4.617,0.104,9.144,1.149,13.717,1.118c1.858-0.012,3.873-0.506,5.535-0.009
		c-9.443,1.444-18.975,0.546-28.46,1.289c-7.95,0.625-14.97,0.853-23.101,0.39c-6.918-0.396-13.26-2.132-20.131-3.08
		c-10.142-1.397-20.812-0.5-31.041-0.5c-13.457,0-26.802-2.508-40.099-0.889c-3.973,0.483-13.545,2.1-15.189-2.312
		c-1.118-2.998,2.23-8.733,0.033-11.508c-0.329-0.418-1.964-1.18-2.436-1.291"/>
	
		<radialGradient id="SVGID_3_" cx="452.678" cy="-266.8171" r="8.2651" gradientTransform="matrix(1 0 0 -1 -281.5 -252.5688)" gradientUnits="userSpaceOnUse">
		<stop  offset="0" style="stop-color:#ED1C24"/>
		<stop  offset="1" style="stop-color:#F1822C"/>
	</radialGradient>
	<path fill="url(#SVGID_3_)" d="M169.666,24.568c-5.824-2.544-1.117-7.311,0.561-10.416c1.769-3.272,2.711-6.995,1.562-10.757
		c1.238,4.431,5.594,6.876,2.824,11.718c-0.861,1.511-3.509,2.07-4.558,3.975c-0.914,1.661-0.968,4.489-1.455,6.014"/>
	
		<radialGradient id="SVGID_4_" cx="481.8245" cy="-363.7625" r="7.9035" gradientTransform="matrix(1 0 0 -1 -281.5 -252.5688)" gradientUnits="userSpaceOnUse">
		<stop  offset="0" style="stop-color:#ED1C24"/>
		<stop  offset="1" style="stop-color:#F1822C"/>
	</radialGradient>
	<path fill="url(#SVGID_4_)" d="M196.866,121.102c-2.311-2.81,4.396-5.336,4.798-9.586c0.342-3.625-4.588-9.468-1.064-10.763
		c0.34,4.449,5.482,8.269,3.08,13.84c-1.514,3.509-5.354,3.74-7.348,7.04"/>
	
		<radialGradient id="SVGID_5_" cx="477.2473" cy="-318.551" r="3.8794" gradientTransform="matrix(1 0 0 -1 -281.5 -252.5688)" gradientUnits="userSpaceOnUse">
		<stop  offset="0" style="stop-color:#FBB040"/>
		<stop  offset="0.4663" style="stop-color:#FBB040"/>
		<stop  offset="0.8221" style="stop-color:#F1822C"/>
	</radialGradient>
	<path opacity="0.85" fill="url(#SVGID_5_)" enable-background="new    " d="M195.266,70.434c-3.082-4.244,1.264-6.302,2.665-9.438
		c0.401,3.23-0.239,7.56-4.053,7.914c-0.688,1.059-0.354,1.592-0.212,2.059"/>
	
		<radialGradient id="SVGID_6_" cx="368.2454" cy="-278.5505" r="4.7859" gradientTransform="matrix(1 0 0 -1 -281.5 -252.5688)" gradientUnits="userSpaceOnUse">
		<stop  offset="0" style="stop-color:#FBB040"/>
		<stop  offset="0.4663" style="stop-color:#FBB040"/>
		<stop  offset="0.8221" style="stop-color:#F1822C"/>
	</radialGradient>
	<path opacity="0.85" fill="url(#SVGID_6_)" enable-background="new    " d="M88.066,32.033c-6.498-2.213,0.111-8.179-0.53-12.637
		c0.928,2.98,0.969,4.764,0.396,7.729c-0.432,2.248-3.649,2.775-0.932,5.441"/>
</g>
<g id="Layer_1" display="none">
	
		<radialGradient id="SVGID_7_" cx="373.5334" cy="-363.804" r="70.9029" gradientTransform="matrix(1 0 0 -1 -281.5 -252.5688)" gradientUnits="userSpaceOnUse">
		<stop  offset="0" style="stop-color:#FBB040"/>
		<stop  offset="0.4663" style="stop-color:#FBB040"/>
		<stop  offset="0.8221" style="stop-color:#F1822C"/>
	</radialGradient>
	<path display="inline" opacity="0.85" fill="url(#SVGID_7_)" enable-background="new    " d="M123.062,135.865
		c0.646-6.969-1.398-8.982-5.904-14.295c-4.751-5.603-5.827-9.453-5.829-16.64c-0.002-14.438-8.343-20.331-14.838-31.954
		c2.405,6.209,3.406,13.063,2.17,19.819c-0.562,3.062-4.275,13.318-8.012,13.129c-4.538-0.229-3.855-11.275-3.854-14.34
		c0.006-5.623-0.492-11.6-5.801-14.771c-0.466,7.146,6.373,18.161,1.664,25.034c-2.58,3.764-4.074-1.289-7.062-3.837
		c-2.477-2.11-5.787-4.192-8.998-4.198c1.58,5.281,16.857,20.79,0.917,21.25c-11.905,0.342-3.239-11.352-1.655-17.443
		c2.56-9.834-2.954-19.498-9.99-26.188c3.212,5.073,6.679,8.325,5.896,14.804c-0.938,7.761-6.717,12.001-9.82,18.528
		c-3.794,7.979,2.022,11.862,4.936,18.403c1.684,3.783,1.611,6.822,1.646,10.947c0.227-3.205-2.567-3.732-4.93-2.529
		c-2.606,1.329-1.412,4.571-3.059,6.423c-6.144,6.913-12.392-5.046-16.072-10.28c-0.217,1.766,1.066,6.218-2.062,11.351
		c-1.072,1.76-3.991,2.543-5.224,4.758c-2.366-5.585,1.263-11.182-2.241-16.593c-3.249,3.479-2.088,9.954-2.774,14.442
		c-3.123-2.188-5.422-7.083-8.367-9.949c0.174,4.366,3.904,7.265,3.595,11.93c-5.65,0.658-11.801,1.164-17.393,2.866
		c16.164,2.091,120.123,4.374,133.223,3.72c13.279-0.66,25.818,0.935,38.577,0.775c1.819-0.021,10.71-0.068,12.267-1.127
		c-13.618-4.914-36.965-2.021-50.828-5.595c-0.118-4.276,0.997-18.646-3.684-18.491c-2.473,5.077-0.897,11.934-1.252,17.446
		c-2.887-1.771-5.68-5.464-6.895-8.994c0.47-0.622,1.114-1.273,1.653-1.603"/>
	
		<use xlink:href="#flame-yellow-1"  width="181.437" height="106.29" id="XMLID_1_" x="-90.719" y="-53.145" transform="matrix(0.8 0 0 -0.8 122.9426 108.9187)" display="inline" overflow="visible"/>
</g>
</svg>
